<?xml version="1.0" encoding="UTF-8"?>
<svg xmlns="http://www.w3.org/2000/svg" xmlns:xlink="http://www.w3.org/1999/xlink" width="50px" height="50px" viewBox="0 0 50 50" version="1.1">
<g id="surface1">
<path style=" stroke:none;fill-rule:nonzero;fill:rgb(100%,81.960784%,36.078431%);fill-opacity:1;" d="M 24.0625 42.707031 L 24.0625 30 C 24.0625 28.957031 22.8125 28.542969 22.1875 29.167969 L 13.230469 38.125 C 12.8125 38.542969 12.8125 39.375 13.332031 39.792969 C 16.042969 41.980469 19.375 43.332031 22.917969 43.75 C 23.4375 43.957031 24.0625 43.332031 24.0625 42.707031 Z M 24.0625 42.707031 "/>
<path style=" stroke:none;fill-rule:nonzero;fill:rgb(100%,81.960784%,36.078431%);fill-opacity:1;" d="M 10.105469 13.230469 C 7.917969 15.9375 6.5625 19.269531 6.144531 22.8125 C 6.042969 23.4375 6.5625 24.0625 7.292969 24.0625 L 20 24.0625 C 21.042969 24.0625 21.457031 22.8125 20.832031 22.1875 L 11.875 13.230469 C 11.355469 12.707031 10.519531 12.707031 10.105469 13.230469 Z M 10.105469 13.230469 "/>
<path style=" stroke:none;fill-rule:nonzero;fill:rgb(100%,81.960784%,36.078431%);fill-opacity:1;" d="M 6.144531 27.1875 C 6.5625 30.832031 8.019531 34.0625 10.105469 36.769531 C 10.519531 37.292969 11.25 37.292969 11.769531 36.875 L 20.730469 27.917969 C 21.457031 27.1875 20.9375 26.042969 19.894531 26.042969 L 7.292969 26.042969 C 6.667969 25.9375 6.042969 26.5625 6.144531 27.1875 Z M 6.144531 27.1875 "/>
<path style=" stroke:none;fill-rule:nonzero;fill:rgb(100%,81.960784%,36.078431%);fill-opacity:1;" d="M 43.855469 22.8125 C 43.4375 19.167969 41.980469 15.9375 39.894531 13.230469 C 39.480469 12.707031 38.75 12.707031 38.230469 13.125 L 29.269531 22.082031 C 28.542969 22.8125 29.0625 23.957031 30.105469 23.957031 L 42.8125 23.957031 C 43.332031 24.0625 43.957031 23.4375 43.855469 22.8125 Z M 43.855469 22.8125 "/>
<path style=" stroke:none;fill-rule:nonzero;fill:rgb(100%,81.960784%,36.078431%);fill-opacity:1;" d="M 24.0625 20 L 24.0625 7.292969 C 24.0625 6.667969 23.542969 6.144531 22.8125 6.144531 C 19.167969 6.5625 15.9375 8.019531 13.230469 10.105469 C 12.707031 10.519531 12.707031 11.25 13.125 11.769531 L 22.082031 20.730469 C 22.8125 21.457031 24.0625 21.042969 24.0625 20 Z M 24.0625 20 "/>
<path style=" stroke:none;fill-rule:nonzero;fill:rgb(100%,81.960784%,36.078431%);fill-opacity:1;" d="M 25.9375 7.292969 L 25.9375 20 C 25.9375 21.042969 27.1875 21.457031 27.8125 20.832031 L 36.769531 11.875 C 37.1875 11.457031 37.1875 10.625 36.667969 10.207031 C 33.957031 8.019531 30.625 6.667969 27.082031 6.25 C 26.5625 6.042969 25.9375 6.5625 25.9375 7.292969 Z M 25.9375 7.292969 "/>
<path style=" stroke:none;fill-rule:nonzero;fill:rgb(100%,81.960784%,36.078431%);fill-opacity:1;" d="M 39.894531 36.769531 C 42.082031 34.0625 43.4375 30.730469 43.855469 27.1875 C 43.957031 26.5625 43.4375 25.9375 42.707031 25.9375 L 30 25.9375 C 28.957031 25.9375 28.542969 27.1875 29.167969 27.8125 L 38.125 36.769531 C 38.644531 37.292969 39.480469 37.292969 39.894531 36.769531 Z M 39.894531 36.769531 "/>
<path style=" stroke:none;fill-rule:nonzero;fill:rgb(100%,81.960784%,36.078431%);fill-opacity:1;" d="M 27.1875 43.855469 C 30.832031 43.4375 34.0625 41.980469 36.769531 39.894531 C 37.292969 39.480469 37.292969 38.75 36.875 38.230469 L 27.917969 29.269531 C 27.1875 28.542969 26.042969 29.0625 26.042969 30.105469 L 26.042969 42.8125 C 25.9375 43.332031 26.5625 43.957031 27.1875 43.855469 Z M 27.1875 43.855469 "/>
<path style=" stroke:none;fill-rule:nonzero;fill:rgb(100%,81.960784%,36.078431%);fill-opacity:1;" d="M 25 0 C 11.144531 0 0 11.144531 0 25 C 0 25.3125 0 25.625 0 25.9375 C 0.519531 39.269531 11.457031 50 25 50 C 38.542969 50 49.480469 39.269531 50 25.9375 C 50 25.625 50 25.3125 50 25 C 50 11.144531 38.855469 0 25 0 Z M 25 46.667969 C 13.332031 46.667969 3.855469 37.394531 3.332031 25.9375 C 3.332031 25.625 3.332031 25.3125 3.332031 25 C 3.332031 13.019531 13.019531 3.332031 25 3.332031 C 36.980469 3.332031 46.667969 13.019531 46.667969 25 C 46.667969 25.3125 46.667969 25.625 46.667969 25.9375 C 46.144531 37.5 36.667969 46.667969 25 46.667969 Z M 25 46.667969 "/>
</g>
</svg>
